<svg width="69" height="40" viewBox="0 0 69 40" fill="none" xmlns="http://www.w3.org/2000/svg">
<rect x="1.71947" y="1.5" width="66" height="37" rx="18.5" stroke="#EE99B1" stroke-width="2"/>
<path d="M10.7195 20.5C10.7195 19.6716 11.391 19 12.2195 19C13.0479 19 13.7195 19.6716 13.7195 20.5V26.5C13.7195 27.3284 13.0479 28 12.2195 28C11.391 28 10.7195 27.3284 10.7195 26.5V20.5Z" fill="#111827"/>
<path d="M14.7195 20.3333V25.7639C14.7195 26.5215 15.1475 27.214 15.825 27.5528L15.8749 27.5777C16.4303 27.8554 17.0428 28 17.6637 28H23.0799C24.0332 28 24.8541 27.3271 25.041 26.3922L26.241 20.3922C26.4885 19.1547 25.542 18 24.2799 18H20.7195V14C20.7195 12.8954 19.824 12 18.7195 12C18.1672 12 17.7195 12.4477 17.7195 13V13.6667C17.7195 14.5321 17.4388 15.3743 16.9195 16.0667L15.5195 17.9333C15.0002 18.6257 14.7195 19.4679 14.7195 20.3333Z" fill="#111827"/>
<path d="M34.1023 24.2891H34.2507C35.0841 24.2891 35.7611 24.1719 36.282 23.9375C36.8028 23.7031 37.2038 23.388 37.4851 22.9922C37.7663 22.5964 37.9591 22.151 38.0632 21.6562C38.1674 21.1562 38.2195 20.6432 38.2195 20.1172V18.375C38.2195 17.8594 38.1596 17.401 38.0398 17C37.9252 16.599 37.7637 16.263 37.5554 15.9922C37.3523 15.7214 37.1205 15.5156 36.8601 15.375C36.5997 15.2344 36.3236 15.1641 36.032 15.1641C35.6986 15.1641 35.3992 15.2318 35.1335 15.3672C34.8731 15.4974 34.6518 15.6823 34.4695 15.9219C34.2924 16.1615 34.157 16.4427 34.0632 16.7656C33.9695 17.0885 33.9226 17.4401 33.9226 17.8203C33.9226 18.1589 33.9643 18.487 34.0476 18.8047C34.1309 19.1224 34.2585 19.4089 34.4304 19.6641C34.6023 19.9193 34.8158 20.1224 35.071 20.2734C35.3314 20.4193 35.6361 20.4922 35.9851 20.4922C36.308 20.4922 36.6101 20.4297 36.8913 20.3047C37.1778 20.1745 37.4304 20 37.6492 19.7812C37.8731 19.5573 38.0502 19.3047 38.1804 19.0234C38.3158 18.7422 38.3939 18.4479 38.4148 18.1406H39.1023C39.1023 18.5729 39.0163 19 38.8445 19.4219C38.6778 19.8385 38.4434 20.2188 38.1413 20.5625C37.8393 20.9062 37.4851 21.1823 37.0788 21.3906C36.6726 21.5938 36.2299 21.6953 35.7507 21.6953C35.1882 21.6953 34.7012 21.5859 34.2898 21.3672C33.8783 21.1484 33.5398 20.8568 33.2742 20.4922C33.0137 20.1276 32.8184 19.7214 32.6882 19.2734C32.5632 18.8203 32.5007 18.362 32.5007 17.8984C32.5007 17.3568 32.5762 16.849 32.7273 16.375C32.8783 15.901 33.1023 15.4844 33.3992 15.125C33.696 14.7604 34.0632 14.4766 34.5007 14.2734C34.9434 14.0703 35.4538 13.9688 36.032 13.9688C36.683 13.9688 37.2377 14.099 37.696 14.3594C38.1544 14.6198 38.5268 14.9688 38.8132 15.4062C39.1049 15.8438 39.3184 16.3359 39.4538 16.8828C39.5893 17.4297 39.657 17.9922 39.657 18.5703V19.0938C39.657 19.6823 39.6179 20.2812 39.5398 20.8906C39.4669 21.4948 39.3236 22.0729 39.1101 22.625C38.9018 23.1771 38.5971 23.6719 38.196 24.1094C37.795 24.5417 37.2716 24.8854 36.6257 25.1406C35.9851 25.3906 35.1934 25.5156 34.2507 25.5156H34.1023V24.2891ZM43.1023 24.2891H43.2507C44.0841 24.2891 44.7611 24.1719 45.282 23.9375C45.8028 23.7031 46.2038 23.388 46.4851 22.9922C46.7663 22.5964 46.9591 22.151 47.0632 21.6562C47.1674 21.1562 47.2195 20.6432 47.2195 20.1172V18.375C47.2195 17.8594 47.1596 17.401 47.0398 17C46.9252 16.599 46.7637 16.263 46.5554 15.9922C46.3523 15.7214 46.1205 15.5156 45.8601 15.375C45.5997 15.2344 45.3236 15.1641 45.032 15.1641C44.6986 15.1641 44.3992 15.2318 44.1335 15.3672C43.8731 15.4974 43.6518 15.6823 43.4695 15.9219C43.2924 16.1615 43.157 16.4427 43.0632 16.7656C42.9695 17.0885 42.9226 17.4401 42.9226 17.8203C42.9226 18.1589 42.9643 18.487 43.0476 18.8047C43.1309 19.1224 43.2585 19.4089 43.4304 19.6641C43.6023 19.9193 43.8158 20.1224 44.071 20.2734C44.3314 20.4193 44.6361 20.4922 44.9851 20.4922C45.308 20.4922 45.6101 20.4297 45.8913 20.3047C46.1778 20.1745 46.4304 20 46.6492 19.7812C46.8731 19.5573 47.0502 19.3047 47.1804 19.0234C47.3158 18.7422 47.3939 18.4479 47.4148 18.1406H48.1023C48.1023 18.5729 48.0163 19 47.8445 19.4219C47.6778 19.8385 47.4434 20.2188 47.1413 20.5625C46.8393 20.9062 46.4851 21.1823 46.0788 21.3906C45.6726 21.5938 45.2299 21.6953 44.7507 21.6953C44.1882 21.6953 43.7012 21.5859 43.2898 21.3672C42.8783 21.1484 42.5398 20.8568 42.2742 20.4922C42.0137 20.1276 41.8184 19.7214 41.6882 19.2734C41.5632 18.8203 41.5007 18.362 41.5007 17.8984C41.5007 17.3568 41.5762 16.849 41.7273 16.375C41.8783 15.901 42.1023 15.4844 42.3992 15.125C42.696 14.7604 43.0632 14.4766 43.5007 14.2734C43.9434 14.0703 44.4538 13.9688 45.032 13.9688C45.683 13.9688 46.2377 14.099 46.696 14.3594C47.1544 14.6198 47.5268 14.9688 47.8132 15.4062C48.1049 15.8438 48.3184 16.3359 48.4538 16.8828C48.5893 17.4297 48.657 17.9922 48.657 18.5703V19.0938C48.657 19.6823 48.6179 20.2812 48.5398 20.8906C48.4669 21.4948 48.3236 22.0729 48.1101 22.625C47.9018 23.1771 47.5971 23.6719 47.196 24.1094C46.795 24.5417 46.2716 24.8854 45.6257 25.1406C44.9851 25.3906 44.1934 25.5156 43.2507 25.5156H43.1023V24.2891ZM52.1023 24.2891H52.2507C53.0841 24.2891 53.7611 24.1719 54.282 23.9375C54.8028 23.7031 55.2038 23.388 55.4851 22.9922C55.7663 22.5964 55.9591 22.151 56.0632 21.6562C56.1674 21.1562 56.2195 20.6432 56.2195 20.1172V18.375C56.2195 17.8594 56.1596 17.401 56.0398 17C55.9252 16.599 55.7637 16.263 55.5554 15.9922C55.3523 15.7214 55.1205 15.5156 54.8601 15.375C54.5997 15.2344 54.3236 15.1641 54.032 15.1641C53.6986 15.1641 53.3992 15.2318 53.1335 15.3672C52.8731 15.4974 52.6518 15.6823 52.4695 15.9219C52.2924 16.1615 52.157 16.4427 52.0632 16.7656C51.9695 17.0885 51.9226 17.4401 51.9226 17.8203C51.9226 18.1589 51.9643 18.487 52.0476 18.8047C52.1309 19.1224 52.2585 19.4089 52.4304 19.6641C52.6023 19.9193 52.8158 20.1224 53.071 20.2734C53.3314 20.4193 53.6361 20.4922 53.9851 20.4922C54.308 20.4922 54.6101 20.4297 54.8913 20.3047C55.1778 20.1745 55.4304 20 55.6492 19.7812C55.8731 19.5573 56.0502 19.3047 56.1804 19.0234C56.3158 18.7422 56.3939 18.4479 56.4148 18.1406H57.1023C57.1023 18.5729 57.0163 19 56.8445 19.4219C56.6778 19.8385 56.4434 20.2188 56.1413 20.5625C55.8393 20.9062 55.4851 21.1823 55.0788 21.3906C54.6726 21.5938 54.2299 21.6953 53.7507 21.6953C53.1882 21.6953 52.7012 21.5859 52.2898 21.3672C51.8783 21.1484 51.5398 20.8568 51.2742 20.4922C51.0137 20.1276 50.8184 19.7214 50.6882 19.2734C50.5632 18.8203 50.5007 18.362 50.5007 17.8984C50.5007 17.3568 50.5762 16.849 50.7273 16.375C50.8783 15.901 51.1023 15.4844 51.3992 15.125C51.696 14.7604 52.0632 14.4766 52.5007 14.2734C52.9434 14.0703 53.4538 13.9688 54.032 13.9688C54.683 13.9688 55.2377 14.099 55.696 14.3594C56.1544 14.6198 56.5268 14.9688 56.8132 15.4062C57.1049 15.8438 57.3184 16.3359 57.4538 16.8828C57.5893 17.4297 57.657 17.9922 57.657 18.5703V19.0938C57.657 19.6823 57.6179 20.2812 57.5398 20.8906C57.4669 21.4948 57.3236 22.0729 57.1101 22.625C56.9018 23.1771 56.5971 23.6719 56.196 24.1094C55.795 24.5417 55.2716 24.8854 54.6257 25.1406C53.9851 25.3906 53.1934 25.5156 52.2507 25.5156H52.1023V24.2891Z" fill="black"/>
</svg>
