<svg width="80" height="54" viewBox="0 0 80 54" fill="none" xmlns="http://www.w3.org/2000/svg">
<path d="M39.6689 1.70996C41.6199 0.66589 43.987 0.780404 45.8281 2.00781L75.8281 22.0078C77.4973 23.1206 78.5 24.9939 78.5 27C78.5 29.0061 77.4973 30.8794 75.8281 31.9922L45.8281 51.9922C43.987 53.2196 41.6199 53.3341 39.6689 52.29C37.718 51.2459 36.5 49.2128 36.5 47V34.877L10.8281 51.9922C8.98701 53.2196 6.61988 53.3341 4.66895 52.29C2.718 51.2459 1.5 49.2128 1.5 47V7C1.5 4.78723 2.718 2.75407 4.66895 1.70996C6.61988 0.665889 8.98701 0.780405 10.8281 2.00781L36.5 19.1221V7C36.5 4.78723 37.718 2.75407 39.6689 1.70996Z" fill="#CCEBDC" stroke="#A1C8B5" stroke-width="2" stroke-linecap="round" stroke-linejoin="round"/>
</svg>
