<svg width="41" height="41" viewBox="0 0 41 41" fill="none" xmlns="http://www.w3.org/2000/svg">
<path fill-rule="evenodd" clip-rule="evenodd" d="M8 8C8 3.85786 11.3579 0.5 15.5 0.5C17.4209 0.5 19.1731 1.22214 20.5 2.40974C21.8269 1.22214 23.5791 0.5 25.5 0.5C29.6421 0.5 33 3.85786 33 8C33 8.87659 32.8496 9.71805 32.5732 10.5H35.5C38.2614 10.5 40.5 12.7386 40.5 15.5C40.5 18.2614 38.2614 20.5 35.5 20.5H23V18C23 16.6193 21.8807 15.5 20.5 15.5C19.1193 15.5 18 16.6193 18 18V20.5H5.5C2.73858 20.5 0.5 18.2614 0.5 15.5C0.5 12.7386 2.73858 10.5 5.5 10.5H8.42676C8.15039 9.71805 8 8.87659 8 8ZM18 10.5V8C18 6.61929 16.8807 5.5 15.5 5.5C14.1193 5.5 13 6.61929 13 8C13 9.38071 14.1193 10.5 15.5 10.5H18ZM25.5 10.5C26.8807 10.5 28 9.38071 28 8C28 6.61929 26.8807 5.5 25.5 5.5C24.1193 5.5 23 6.61929 23 8V10.5H25.5Z" fill="#FFA7C0"/>
<path d="M18 23H3V35.5C3 38.2614 5.23858 40.5 8 40.5H18V23Z" fill="#FFA7C0"/>
<path d="M23 40.5H33C35.7614 40.5 38 38.2614 38 35.5V23H23V40.5Z" fill="#FFA7C0"/>
</svg>
