<svg width="79" height="54" viewBox="0 0 79 54" fill="none" xmlns="http://www.w3.org/2000/svg">
<path d="M68.2705 2.01074C70.0929 0.779573 72.4387 0.664765 74.3711 1.71289C76.3018 2.76015 77.5 4.79406 77.5 7V47C77.5 49.2059 76.3018 51.2399 74.3711 52.2871C72.4387 53.3352 70.0929 53.2204 68.2705 51.9893L42.9668 34.8916V47C42.9668 49.2059 41.7686 51.2398 39.8379 52.2871C37.9055 53.3352 35.5597 53.2204 33.7373 51.9893L4.13672 31.9893C2.48599 30.8739 1.5 29.0002 1.5 27C1.5 24.9998 2.48599 23.1261 4.13672 22.0107L33.7373 2.01074C35.5597 0.779621 37.9055 0.664759 39.8379 1.71289C41.7686 2.76016 42.9668 4.79408 42.9668 7V19.1074L68.2705 2.01074Z" fill="#CCEBDC" stroke="#A1C8B5" stroke-width="2" stroke-linecap="round" stroke-linejoin="round"/>
</svg>
