<svg width="86" height="40" viewBox="0 0 86 40" fill="none" xmlns="http://www.w3.org/2000/svg">
<rect x="1.28055" y="1" width="83" height="38" rx="19" stroke="#EE99B1" stroke-width="2"/>
<path d="M21.2805 13C20.7283 13 20.2805 13.4477 20.2805 14C20.2805 14.5523 20.7283 15 21.2805 15H23.8663L17.5734 21.2929C17.1829 21.6834 17.1829 22.3166 17.5734 22.7071C17.964 23.0976 18.5971 23.0976 18.9877 22.7071L25.2805 16.4142V19C25.2805 19.5523 25.7283 20 26.2805 20C26.8328 20 27.2805 19.5523 27.2805 19V14C27.2805 13.4477 26.8328 13 26.2805 13H21.2805Z" fill="#111827"/>
<path d="M15.2805 15C14.176 15 13.2805 15.8954 13.2805 17V25C13.2805 26.1046 14.176 27 15.2805 27H23.2805C24.3851 27 25.2805 26.1046 25.2805 25V22C25.2805 21.4477 24.8328 21 24.2805 21C23.7283 21 23.2805 21.4477 23.2805 22V25H15.2805V17L18.2805 17C18.8328 17 19.2805 16.5523 19.2805 16C19.2805 15.4477 18.8328 15 18.2805 15H15.2805Z" fill="#111827"/>
<path d="M41.304 23.2578C41.304 23.0495 41.2571 22.8568 41.1634 22.6797C41.0748 22.4974 40.8899 22.3333 40.6087 22.1875C40.3326 22.0365 39.916 21.9062 39.3587 21.7969C38.8899 21.6979 38.4654 21.5807 38.0852 21.4453C37.7102 21.3099 37.3899 21.1458 37.1243 20.9531C36.8639 20.7604 36.6634 20.5339 36.5227 20.2734C36.3821 20.013 36.3118 19.7083 36.3118 19.3594C36.3118 19.026 36.3847 18.7109 36.5305 18.4141C36.6816 18.1172 36.8925 17.8542 37.1634 17.625C37.4394 17.3958 37.7701 17.2161 38.1555 17.0859C38.541 16.9557 38.9707 16.8906 39.4446 16.8906C40.1217 16.8906 40.6998 17.0104 41.179 17.25C41.6582 17.4896 42.0253 17.8099 42.2805 18.2109C42.5358 18.6068 42.6634 19.0469 42.6634 19.5312H41.218C41.218 19.2969 41.1477 19.0703 41.0071 18.8516C40.8717 18.6276 40.6712 18.4427 40.4055 18.2969C40.1451 18.151 39.8248 18.0781 39.4446 18.0781C39.0436 18.0781 38.718 18.1406 38.468 18.2656C38.2233 18.3854 38.0436 18.5391 37.929 18.7266C37.8196 18.9141 37.7649 19.112 37.7649 19.3203C37.7649 19.4766 37.791 19.6172 37.843 19.7422C37.9003 19.862 37.9993 19.974 38.1399 20.0781C38.2805 20.1771 38.4785 20.2708 38.7337 20.3594C38.9889 20.4479 39.3144 20.5365 39.7102 20.625C40.4029 20.7812 40.9733 20.9688 41.4212 21.1875C41.8691 21.4062 42.2024 21.6745 42.4212 21.9922C42.6399 22.3099 42.7493 22.6953 42.7493 23.1484C42.7493 23.5182 42.6712 23.8568 42.5149 24.1641C42.3639 24.4714 42.1425 24.737 41.8509 24.9609C41.5644 25.1797 41.2207 25.3516 40.8196 25.4766C40.4238 25.5964 39.9785 25.6562 39.4837 25.6562C38.7389 25.6562 38.1087 25.5234 37.593 25.2578C37.0774 24.9922 36.6868 24.6484 36.4212 24.2266C36.1555 23.8047 36.0227 23.3594 36.0227 22.8906H37.4759C37.4967 23.2865 37.6113 23.6016 37.8196 23.8359C38.0279 24.0651 38.2832 24.2292 38.5852 24.3281C38.8873 24.4219 39.1868 24.4688 39.4837 24.4688C39.8795 24.4688 40.2102 24.4167 40.4759 24.3125C40.7467 24.2083 40.9524 24.0651 41.093 23.8828C41.2337 23.7005 41.304 23.4922 41.304 23.2578ZM46.093 13.5V25.5H44.6477V13.5H46.093ZM45.7493 20.9531L45.1477 20.9297C45.1529 20.3516 45.2389 19.8177 45.4055 19.3281C45.5722 18.8333 45.8066 18.4036 46.1087 18.0391C46.4108 17.6745 46.7701 17.3932 47.1868 17.1953C47.6087 16.9922 48.0748 16.8906 48.5852 16.8906C49.0019 16.8906 49.3769 16.9479 49.7102 17.0625C50.0436 17.1719 50.3274 17.349 50.5618 17.5938C50.8014 17.8385 50.9837 18.1562 51.1087 18.5469C51.2337 18.9323 51.2962 19.4036 51.2962 19.9609V25.5H49.843V19.9453C49.843 19.5026 49.7779 19.1484 49.6477 18.8828C49.5175 18.612 49.3274 18.4167 49.0774 18.2969C48.8274 18.1719 48.5201 18.1094 48.1555 18.1094C47.7962 18.1094 47.468 18.1849 47.1712 18.3359C46.8795 18.487 46.6269 18.6953 46.4134 18.9609C46.205 19.2266 46.041 19.5312 45.9212 19.875C45.8066 20.2135 45.7493 20.5729 45.7493 20.9531ZM58.4446 24.0547V19.7031C58.4446 19.3698 58.3769 19.0807 58.2415 18.8359C58.1113 18.5859 57.9134 18.3932 57.6477 18.2578C57.3821 18.1224 57.054 18.0547 56.6634 18.0547C56.2988 18.0547 55.9785 18.1172 55.7024 18.2422C55.4316 18.3672 55.218 18.5312 55.0618 18.7344C54.9108 18.9375 54.8352 19.1562 54.8352 19.3906H53.3899C53.3899 19.0885 53.468 18.7891 53.6243 18.4922C53.7805 18.1953 54.0045 17.9271 54.2962 17.6875C54.593 17.4427 54.9472 17.25 55.3587 17.1094C55.7753 16.9635 56.2389 16.8906 56.7493 16.8906C57.3639 16.8906 57.9055 16.9948 58.3743 17.2031C58.8483 17.4115 59.218 17.7266 59.4837 18.1484C59.7545 18.5651 59.8899 19.0885 59.8899 19.7188V23.6562C59.8899 23.9375 59.9134 24.237 59.9602 24.5547C60.0123 24.8724 60.0878 25.1458 60.1868 25.375V25.5H58.679C58.6061 25.3333 58.5488 25.112 58.5071 24.8359C58.4654 24.5547 58.4446 24.2943 58.4446 24.0547ZM58.6946 20.375L58.7102 21.3906H57.2493C56.8378 21.3906 56.4707 21.4245 56.1477 21.4922C55.8248 21.5547 55.554 21.651 55.3352 21.7812C55.1165 21.9115 54.9498 22.0755 54.8352 22.2734C54.7207 22.4661 54.6634 22.6927 54.6634 22.9531C54.6634 23.2188 54.7233 23.4609 54.843 23.6797C54.9628 23.8984 55.1425 24.0729 55.3821 24.2031C55.6269 24.3281 55.9264 24.3906 56.2805 24.3906C56.7233 24.3906 57.1139 24.2969 57.4524 24.1094C57.791 23.9219 58.0592 23.6927 58.2571 23.4219C58.4602 23.151 58.5696 22.888 58.5852 22.6328L59.2024 23.3281C59.166 23.5469 59.067 23.7891 58.9055 24.0547C58.7441 24.3203 58.5279 24.5755 58.2571 24.8203C57.9915 25.0599 57.6738 25.2604 57.304 25.4219C56.9394 25.5781 56.5279 25.6562 56.0696 25.6562C55.4967 25.6562 54.9941 25.5443 54.5618 25.3203C54.1347 25.0964 53.8014 24.7969 53.5618 24.4219C53.3274 24.0417 53.2102 23.6172 53.2102 23.1484C53.2102 22.6953 53.2988 22.2969 53.4759 21.9531C53.6529 21.6042 53.9082 21.3151 54.2415 21.0859C54.5748 20.8516 54.9759 20.6745 55.4446 20.5547C55.9134 20.4349 56.4368 20.375 57.0149 20.375H58.6946ZM63.6087 18.375V25.5H62.1634V17.0469H63.5696L63.6087 18.375ZM66.2493 17L66.2415 18.3438C66.1217 18.3177 66.0071 18.3021 65.8977 18.2969C65.7936 18.2865 65.6738 18.2812 65.5384 18.2812C65.205 18.2812 64.9108 18.3333 64.6555 18.4375C64.4003 18.5417 64.1842 18.6875 64.0071 18.875C63.83 19.0625 63.6894 19.2865 63.5852 19.5469C63.4863 19.8021 63.4212 20.0833 63.3899 20.3906L62.9837 20.625C62.9837 20.1146 63.0332 19.6354 63.1321 19.1875C63.2363 18.7396 63.3951 18.3438 63.6087 18C63.8222 17.651 64.093 17.3802 64.4212 17.1875C64.7545 16.9896 65.1503 16.8906 65.6087 16.8906C65.7128 16.8906 65.8326 16.9036 65.968 16.9297C66.1035 16.9505 66.1972 16.974 66.2493 17ZM70.9368 25.6562C70.3483 25.6562 69.8144 25.5573 69.3352 25.3594C68.8613 25.1562 68.4524 24.8724 68.1087 24.5078C67.7701 24.1432 67.5097 23.7109 67.3274 23.2109C67.1451 22.7109 67.054 22.1641 67.054 21.5703V21.2422C67.054 20.5547 67.1555 19.9427 67.3587 19.4062C67.5618 18.8646 67.8378 18.4062 68.1868 18.0312C68.5358 17.6562 68.9316 17.3724 69.3743 17.1797C69.817 16.987 70.2753 16.8906 70.7493 16.8906C71.3535 16.8906 71.8743 16.9948 72.3118 17.2031C72.7545 17.4115 73.1165 17.7031 73.3977 18.0781C73.679 18.4479 73.8873 18.8854 74.0227 19.3906C74.1582 19.8906 74.2259 20.4375 74.2259 21.0312V21.6797H67.9134V20.5H72.7805V20.3906C72.7597 20.0156 72.6816 19.651 72.5462 19.2969C72.416 18.9427 72.2076 18.651 71.9212 18.4219C71.6347 18.1927 71.2441 18.0781 70.7493 18.0781C70.4212 18.0781 70.1191 18.1484 69.843 18.2891C69.567 18.4245 69.33 18.6276 69.1321 18.8984C68.9342 19.1693 68.7805 19.5 68.6712 19.8906C68.5618 20.2812 68.5071 20.7318 68.5071 21.2422V21.5703C68.5071 21.9714 68.5618 22.349 68.6712 22.7031C68.7858 23.0521 68.9498 23.3594 69.1634 23.625C69.3821 23.8906 69.6451 24.099 69.9524 24.25C70.2649 24.401 70.6191 24.4766 71.0149 24.4766C71.5253 24.4766 71.9576 24.3724 72.3118 24.1641C72.666 23.9557 72.9759 23.6771 73.2415 23.3281L74.1165 24.0234C73.9342 24.2995 73.7024 24.5625 73.4212 24.8125C73.1399 25.0625 72.7936 25.2656 72.3821 25.4219C71.9759 25.5781 71.4941 25.6562 70.9368 25.6562Z" fill="#1B1B1B"/>
</svg>
