<svg width="50" height="50" viewBox="0 0 50 50" fill="none" xmlns="http://www.w3.org/2000/svg">
<path d="M25 1C38.2548 1 49 11.7452 49 25C49 38.2548 38.2548 49 25 49C11.7452 49 1 38.2548 1 25C1 11.7452 11.7452 1 25 1ZM18.75 14.625C16.4718 14.625 14.625 16.4718 14.625 18.75V31.25C14.625 33.5282 16.4718 35.375 18.75 35.375C21.0282 35.375 22.875 33.5282 22.875 31.25V18.75C22.875 16.4718 21.0282 14.625 18.75 14.625ZM31.25 14.625C28.9718 14.625 27.125 16.4718 27.125 18.75V31.25C27.125 33.5282 28.9718 35.375 31.25 35.375C33.5282 35.375 35.375 33.5282 35.375 31.25V18.75C35.375 16.4718 33.5282 14.625 31.25 14.625Z" fill="#CCEBDC" stroke="#A1C8B5" stroke-width="2"/>
</svg>
