<svg width="69" height="40" viewBox="0 0 69 40" fill="none" xmlns="http://www.w3.org/2000/svg">
<rect x="1.28055" y="1.5" width="66" height="37" rx="18.5" stroke="#EE99B1" stroke-width="2"/>
<path fill-rule="evenodd" clip-rule="evenodd" d="M26.2805 20C26.2805 23.866 22.6988 27 18.2805 27C16.7889 27 15.3926 26.6428 14.1973 26.0208L10.2805 27L11.6189 23.8773C10.7733 22.7673 10.2805 21.434 10.2805 20C10.2805 16.134 13.8623 13 18.2805 13C22.6988 13 26.2805 16.134 26.2805 20ZM15.2805 19H13.2805V21H15.2805V19ZM23.2805 19H21.2805V21H23.2805V19ZM17.2805 19H19.2805V21H17.2805V19Z" fill="#111827"/>
<path d="M33.6634 24.2891H33.8118C34.6451 24.2891 35.3222 24.1719 35.843 23.9375C36.3639 23.7031 36.7649 23.388 37.0462 22.9922C37.3274 22.5964 37.5201 22.151 37.6243 21.6562C37.7285 21.1562 37.7805 20.6432 37.7805 20.1172V18.375C37.7805 17.8594 37.7207 17.401 37.6009 17C37.4863 16.599 37.3248 16.263 37.1165 15.9922C36.9134 15.7214 36.6816 15.5156 36.4212 15.375C36.1608 15.2344 35.8847 15.1641 35.593 15.1641C35.2597 15.1641 34.9602 15.2318 34.6946 15.3672C34.4342 15.4974 34.2128 15.6823 34.0305 15.9219C33.8535 16.1615 33.718 16.4427 33.6243 16.7656C33.5305 17.0885 33.4837 17.4401 33.4837 17.8203C33.4837 18.1589 33.5253 18.487 33.6087 18.8047C33.692 19.1224 33.8196 19.4089 33.9915 19.6641C34.1634 19.9193 34.3769 20.1224 34.6321 20.2734C34.8925 20.4193 35.1972 20.4922 35.5462 20.4922C35.8691 20.4922 36.1712 20.4297 36.4524 20.3047C36.7389 20.1745 36.9915 20 37.2102 19.7812C37.4342 19.5573 37.6113 19.3047 37.7415 19.0234C37.8769 18.7422 37.955 18.4479 37.9759 18.1406H38.6634C38.6634 18.5729 38.5774 19 38.4055 19.4219C38.2389 19.8385 38.0045 20.2188 37.7024 20.5625C37.4003 20.9062 37.0462 21.1823 36.6399 21.3906C36.2337 21.5938 35.791 21.6953 35.3118 21.6953C34.7493 21.6953 34.2623 21.5859 33.8509 21.3672C33.4394 21.1484 33.1009 20.8568 32.8352 20.4922C32.5748 20.1276 32.3795 19.7214 32.2493 19.2734C32.1243 18.8203 32.0618 18.362 32.0618 17.8984C32.0618 17.3568 32.1373 16.849 32.2884 16.375C32.4394 15.901 32.6634 15.4844 32.9602 15.125C33.2571 14.7604 33.6243 14.4766 34.0618 14.2734C34.5045 14.0703 35.0149 13.9688 35.593 13.9688C36.2441 13.9688 36.7988 14.099 37.2571 14.3594C37.7154 14.6198 38.0878 14.9688 38.3743 15.4062C38.666 15.8438 38.8795 16.3359 39.0149 16.8828C39.1503 17.4297 39.218 17.9922 39.218 18.5703V19.0938C39.218 19.6823 39.179 20.2812 39.1009 20.8906C39.0279 21.4948 38.8847 22.0729 38.6712 22.625C38.4628 23.1771 38.1582 23.6719 37.7571 24.1094C37.3561 24.5417 36.8326 24.8854 36.1868 25.1406C35.5462 25.3906 34.7545 25.5156 33.8118 25.5156H33.6634V24.2891ZM42.6634 24.2891H42.8118C43.6451 24.2891 44.3222 24.1719 44.843 23.9375C45.3639 23.7031 45.7649 23.388 46.0462 22.9922C46.3274 22.5964 46.5201 22.151 46.6243 21.6562C46.7285 21.1562 46.7805 20.6432 46.7805 20.1172V18.375C46.7805 17.8594 46.7207 17.401 46.6009 17C46.4863 16.599 46.3248 16.263 46.1165 15.9922C45.9134 15.7214 45.6816 15.5156 45.4212 15.375C45.1608 15.2344 44.8847 15.1641 44.593 15.1641C44.2597 15.1641 43.9602 15.2318 43.6946 15.3672C43.4342 15.4974 43.2128 15.6823 43.0305 15.9219C42.8535 16.1615 42.718 16.4427 42.6243 16.7656C42.5305 17.0885 42.4837 17.4401 42.4837 17.8203C42.4837 18.1589 42.5253 18.487 42.6087 18.8047C42.692 19.1224 42.8196 19.4089 42.9915 19.6641C43.1634 19.9193 43.3769 20.1224 43.6321 20.2734C43.8925 20.4193 44.1972 20.4922 44.5462 20.4922C44.8691 20.4922 45.1712 20.4297 45.4524 20.3047C45.7389 20.1745 45.9915 20 46.2102 19.7812C46.4342 19.5573 46.6113 19.3047 46.7415 19.0234C46.8769 18.7422 46.955 18.4479 46.9759 18.1406H47.6634C47.6634 18.5729 47.5774 19 47.4055 19.4219C47.2389 19.8385 47.0045 20.2188 46.7024 20.5625C46.4003 20.9062 46.0462 21.1823 45.6399 21.3906C45.2337 21.5938 44.791 21.6953 44.3118 21.6953C43.7493 21.6953 43.2623 21.5859 42.8509 21.3672C42.4394 21.1484 42.1009 20.8568 41.8352 20.4922C41.5748 20.1276 41.3795 19.7214 41.2493 19.2734C41.1243 18.8203 41.0618 18.362 41.0618 17.8984C41.0618 17.3568 41.1373 16.849 41.2884 16.375C41.4394 15.901 41.6634 15.4844 41.9602 15.125C42.2571 14.7604 42.6243 14.4766 43.0618 14.2734C43.5045 14.0703 44.0149 13.9688 44.593 13.9688C45.2441 13.9688 45.7988 14.099 46.2571 14.3594C46.7154 14.6198 47.0878 14.9688 47.3743 15.4062C47.666 15.8438 47.8795 16.3359 48.0149 16.8828C48.1503 17.4297 48.218 17.9922 48.218 18.5703V19.0938C48.218 19.6823 48.179 20.2812 48.1009 20.8906C48.0279 21.4948 47.8847 22.0729 47.6712 22.625C47.4628 23.1771 47.1582 23.6719 46.7571 24.1094C46.3561 24.5417 45.8326 24.8854 45.1868 25.1406C44.5462 25.3906 43.7545 25.5156 42.8118 25.5156H42.6634V24.2891ZM51.6634 24.2891H51.8118C52.6451 24.2891 53.3222 24.1719 53.843 23.9375C54.3639 23.7031 54.7649 23.388 55.0462 22.9922C55.3274 22.5964 55.5201 22.151 55.6243 21.6562C55.7285 21.1562 55.7805 20.6432 55.7805 20.1172V18.375C55.7805 17.8594 55.7207 17.401 55.6009 17C55.4863 16.599 55.3248 16.263 55.1165 15.9922C54.9134 15.7214 54.6816 15.5156 54.4212 15.375C54.1608 15.2344 53.8847 15.1641 53.593 15.1641C53.2597 15.1641 52.9602 15.2318 52.6946 15.3672C52.4342 15.4974 52.2128 15.6823 52.0305 15.9219C51.8535 16.1615 51.718 16.4427 51.6243 16.7656C51.5305 17.0885 51.4837 17.4401 51.4837 17.8203C51.4837 18.1589 51.5253 18.487 51.6087 18.8047C51.692 19.1224 51.8196 19.4089 51.9915 19.6641C52.1634 19.9193 52.3769 20.1224 52.6321 20.2734C52.8925 20.4193 53.1972 20.4922 53.5462 20.4922C53.8691 20.4922 54.1712 20.4297 54.4524 20.3047C54.7389 20.1745 54.9915 20 55.2102 19.7812C55.4342 19.5573 55.6113 19.3047 55.7415 19.0234C55.8769 18.7422 55.955 18.4479 55.9759 18.1406H56.6634C56.6634 18.5729 56.5774 19 56.4055 19.4219C56.2389 19.8385 56.0045 20.2188 55.7024 20.5625C55.4003 20.9062 55.0462 21.1823 54.6399 21.3906C54.2337 21.5938 53.791 21.6953 53.3118 21.6953C52.7493 21.6953 52.2623 21.5859 51.8509 21.3672C51.4394 21.1484 51.1009 20.8568 50.8352 20.4922C50.5748 20.1276 50.3795 19.7214 50.2493 19.2734C50.1243 18.8203 50.0618 18.362 50.0618 17.8984C50.0618 17.3568 50.1373 16.849 50.2884 16.375C50.4394 15.901 50.6634 15.4844 50.9602 15.125C51.2571 14.7604 51.6243 14.4766 52.0618 14.2734C52.5045 14.0703 53.0149 13.9688 53.593 13.9688C54.2441 13.9688 54.7988 14.099 55.2571 14.3594C55.7154 14.6198 56.0878 14.9688 56.3743 15.4062C56.666 15.8438 56.8795 16.3359 57.0149 16.8828C57.1503 17.4297 57.218 17.9922 57.218 18.5703V19.0938C57.218 19.6823 57.179 20.2812 57.1009 20.8906C57.0279 21.4948 56.8847 22.0729 56.6712 22.625C56.4628 23.1771 56.1582 23.6719 55.7571 24.1094C55.3561 24.5417 54.8326 24.8854 54.1868 25.1406C53.5462 25.3906 52.7545 25.5156 51.8118 25.5156H51.6634V24.2891Z" fill="black"/>
</svg>
