<svg width="56" height="40" viewBox="0 0 56 40" fill="none" xmlns="http://www.w3.org/2000/svg">
<rect x="1.71947" y="1.5" width="52.5611" height="37" rx="18.5" stroke="#EE99B1" stroke-width="2"/>
<path d="M26.2805 19.5C26.2805 20.3284 25.609 21 24.7805 21C23.9521 21 23.2805 20.3284 23.2805 19.5V13.5C23.2805 12.6716 23.9521 12 24.7805 12C25.609 12 26.2805 12.6716 26.2805 13.5V19.5Z" fill="#111827"/>
<path d="M22.2805 19.6667V14.2361C22.2805 13.4785 21.8525 12.786 21.175 12.4472L21.1251 12.4223C20.5697 12.1446 19.9572 12 19.3363 12L13.9201 12C12.9668 12 12.146 12.6729 11.959 13.6078L10.759 19.6078C10.5115 20.8453 11.4581 22 12.7201 22H16.2805V26C16.2805 27.1046 17.176 28 18.2805 28C18.8328 28 19.2805 27.5523 19.2805 27V26.3333C19.2805 25.4679 19.5612 24.6257 20.0805 23.9333L21.4805 22.0667C21.9998 21.3743 22.2805 20.5321 22.2805 19.6667Z" fill="#111827"/>
<path d="M44.3665 18.9062V20.6406C44.3665 21.5729 44.2832 22.3594 44.1165 23C43.9498 23.6406 43.7102 24.1562 43.3977 24.5469C43.0852 24.9375 42.7076 25.2214 42.2649 25.3984C41.8274 25.5703 41.3326 25.6562 40.7805 25.6562C40.343 25.6562 39.9394 25.6016 39.5696 25.4922C39.1998 25.3828 38.8665 25.2083 38.5696 24.9688C38.2779 24.724 38.0279 24.4062 37.8196 24.0156C37.6113 23.625 37.4524 23.151 37.343 22.5938C37.2337 22.0365 37.179 21.3854 37.179 20.6406V18.9062C37.179 17.974 37.2623 17.1927 37.429 16.5625C37.6009 15.9323 37.843 15.4271 38.1555 15.0469C38.468 14.6615 38.843 14.3854 39.2805 14.2188C39.7233 14.0521 40.218 13.9688 40.7649 13.9688C41.2076 13.9688 41.6139 14.0234 41.9837 14.1328C42.3587 14.237 42.692 14.4062 42.9837 14.6406C43.2753 14.8698 43.5227 15.1771 43.7259 15.5625C43.9342 15.9427 44.093 16.4089 44.2024 16.9609C44.3118 17.513 44.3665 18.1615 44.3665 18.9062ZM42.9134 20.875V18.6641C42.9134 18.1536 42.8821 17.7057 42.8196 17.3203C42.7623 16.9297 42.6764 16.5964 42.5618 16.3203C42.4472 16.0443 42.3014 15.8203 42.1243 15.6484C41.9524 15.4766 41.7519 15.3516 41.5227 15.2734C41.2988 15.1901 41.0462 15.1484 40.7649 15.1484C40.4212 15.1484 40.1165 15.2135 39.8509 15.3438C39.5852 15.4688 39.3613 15.6693 39.179 15.9453C39.0019 16.2214 38.8665 16.5833 38.7727 17.0312C38.679 17.4792 38.6321 18.0234 38.6321 18.6641V20.875C38.6321 21.3854 38.6608 21.8359 38.718 22.2266C38.7805 22.6172 38.8717 22.9557 38.9915 23.2422C39.1113 23.5234 39.2571 23.7552 39.429 23.9375C39.6009 24.1198 39.7988 24.2552 40.0227 24.3438C40.2519 24.4271 40.5045 24.4688 40.7805 24.4688C41.1347 24.4688 41.4446 24.401 41.7102 24.2656C41.9759 24.1302 42.1972 23.9193 42.3743 23.6328C42.5566 23.3411 42.692 22.9688 42.7805 22.5156C42.8691 22.0573 42.9134 21.5104 42.9134 20.875Z" fill="black"/>
</svg>
